<?xml version="1.0" encoding="UTF-8"?>
<svg width="207.36mm" height="13.642mm" version="1.1" viewBox="0 0 207.36 13.642" xmlns="http://www.w3.org/2000/svg"><path d="m207.36 13.642c-7.9407-0.73466-15.85-1.8031-23.702-3.2014-7.4969-1.3353-15.074-2.9791-22.655-2.2578-6.6927 0.63674-13.18 3.1065-19.903 3.0562-7.6935-0.057491-15.02-3.409-22.694-3.9574-9.6181-0.68737-19.1 3.0584-28.736 2.7087-4.8734-0.17686-9.6822-1.4011-14.558-1.3295-6.6552 0.097784-13.151 2.6057-19.799 2.277-5.0837-0.25142-10.002-2.1569-15.092-2.1767-3.4393-0.013388-6.8157 0.83551-10.162 1.632-3.3459 0.79645-6.7577 1.5505-10.191 1.3432-3.5104-0.21202-6.9242-1.4249-10.441-1.4174-3.3963 0.007245-6.7787 1.1994-9.429 3.3232z" stroke-width="0"/></svg>
