<?xml version="1.0" encoding="UTF-8"?>
<svg width="207.36mm" height="13.642mm" version="1.1" viewBox="0 0 207.36 13.642" xmlns="http://www.w3.org/2000/svg"><path d="m0 13.642c7.3846-8.4581 18.69-13.343 29.91-12.924 6.5828 0.24578 13.023 2.2051 19.61 2.3139 8.687 0.14353 17.241-2.9368 25.91-2.3502 5.9515 0.40278 11.723 2.5266 17.688 2.561 5.9262 0.034193 11.682-1.9956 17.596-2.3771 8.3628-0.53951 16.626 2.2292 25.006 2.1674 5.2337-0.038601 10.39-1.18 15.593-1.7486 9.578-1.0466 19.309-0.13953 28.698 2.0234 9.5262 2.1946 18.754 5.6811 27.351 10.334" stroke-width="0"/><path d="M 207.36,13.642 H 0" stroke-width="0"/></svg>
